<?xml version="1.0" encoding="UTF-8" standalone="no"?>
<!-- Created with Inkscape (http://www.inkscape.org/) -->

<svg
   xmlns:dc="http://purl.org/dc/elements/1.1/"
   xmlns:cc="http://creativecommons.org/ns#"
   xmlns:rdf="http://www.w3.org/1999/02/22-rdf-syntax-ns#"
   xmlns:svg="http://www.w3.org/2000/svg"
   xmlns="http://www.w3.org/2000/svg"
   xmlns:sodipodi="http://sodipodi.sourceforge.net/DTD/sodipodi-0.dtd"
   xmlns:inkscape="http://www.inkscape.org/namespaces/inkscape"
   width="210mm"
   height="297mm"
   viewBox="0 0 210 297"
   version="1.1"
   id="svg866"
   inkscape:version="0.92.4 (5da689c313, 2019-01-14)"
   sodipodi:docname="instagram.svg">
  <defs
     id="defs860" />
  <sodipodi:namedview
     id="base"
     pagecolor="#ffffff"
     bordercolor="#666666"
     borderopacity="1.0"
     inkscape:pageopacity="0.0"
     inkscape:pageshadow="2"
     inkscape:zoom="0.35"
     inkscape:cx="400"
     inkscape:cy="560"
     inkscape:document-units="mm"
     inkscape:current-layer="layer1"
     showgrid="false"
     inkscape:window-width="1366"
     inkscape:window-height="705"
     inkscape:window-x="-8"
     inkscape:window-y="-8"
     inkscape:window-maximized="1" />
  <metadata
     id="metadata863">
    <rdf:RDF>
      <cc:Work
         rdf:about="">
        <dc:format>image/svg+xml</dc:format>
        <dc:type
           rdf:resource="http://purl.org/dc/dcmitype/StillImage" />
        <dc:title></dc:title>
      </cc:Work>
    </rdf:RDF>
  </metadata>
  <g
     inkscape:label="Capa 1"
     inkscape:groupmode="layer"
     id="layer1">
    <path
       id="path868"
       d="m 117.68118,126.58589 c -0.82288,-0.0358 -1.07043,-0.0422 -3.15439,-0.0422 -2.08401,0 -2.33042,0.008 -3.1533,0.0422 -2.11747,0.0914 -3.10315,1.03731 -3.20016,3.01932 -0.0379,0.77639 -0.0455,1.00892 -0.0455,2.97514 0,1.96627 0.008,2.19876 0.0455,2.97622 0.0969,1.97677 1.07822,2.92779 3.20016,3.01932 0.82174,0.0358 1.06929,0.043 3.1533,0.043 2.0851,0 2.33151,-0.008 3.15439,-0.043 2.11747,-0.0906 3.10205,-1.03941 3.20016,-3.01932 0.0379,-0.77639 0.0447,-1.00995 0.0447,-2.97622 0,-1.96622 -0.008,-2.19875 -0.0447,-2.97514 -0.0982,-1.98098 -1.08493,-2.92779 -3.20016,-3.01932 z m -3.15439,9.77654 c -2.21335,0 -4.00855,-1.69275 -4.00855,-3.78208 0,-2.08829 1.7952,-3.78099 4.00855,-3.78099 2.21334,0 4.00854,1.6927 4.00854,3.78099 0,2.0883 -1.7952,3.78208 -4.00854,3.78208 z m 4.16687,-6.82875 c -0.51739,0 -0.93662,-0.39563 -0.93662,-0.88371 0,-0.48816 0.41932,-0.88371 0.93662,-0.88371 0.51735,0 0.93663,0.39563 0.93663,0.88371 0,0.48708 -0.41932,0.88371 -0.93663,0.88371 z m -1.56552,3.04667 c 0,1.35608 -1.16521,2.45443 -2.60135,2.45443 -1.43615,0 -2.60136,-1.09835 -2.60136,-2.45443 0,-1.35608 1.16521,-2.45438 2.60136,-2.45438 1.43614,0 2.60135,1.0983 2.60135,2.45438 z m -2.60135,-12.6244 c -7.38933,0 -13.38036,5.65259 -13.38036,12.6244 0,6.97186 5.99103,12.62441 13.38036,12.62441 7.38928,0 13.38035,-5.65255 13.38035,-12.62441 0,-6.97181 -5.99107,-12.6244 -13.38035,-12.6244 z m 7.75837,15.66058 c -0.12811,2.67741 -1.70822,4.16081 -4.53929,4.28387 -0.83291,0.0358 -1.09942,0.0441 -3.21908,0.0441 -2.11966,0 -2.38508,-0.008 -3.21799,-0.0441 -2.83664,-0.12326 -4.40995,-1.60853 -4.54039,-4.28387 -0.0379,-0.78482 -0.0468,-1.03623 -0.0468,-3.03618 0,-1.9999 0.008,-2.25028 0.0468,-3.03617 0.13065,-2.67638 1.70489,-4.16077 4.54039,-4.2828 0.83295,-0.0358 1.09833,-0.0453 3.21799,-0.0453 2.11966,0 2.38617,0.008 3.21908,0.0453 2.83777,0.12326 4.41219,1.61171 4.53929,4.2828 0.0379,0.78589 0.0468,1.03627 0.0468,3.03617 0,1.99995 -0.008,2.25136 -0.0468,3.03618 z"
       inkscape:connector-curvature="0"
       style="stroke-width:1.08307374;fill:#ffffff" />
  </g>
</svg>
