<?xml version="1.0" encoding="UTF-8" standalone="no"?>
<!-- Created with Inkscape (http://www.inkscape.org/) -->

<svg
   xmlns:dc="http://purl.org/dc/elements/1.1/"
   xmlns:cc="http://creativecommons.org/ns#"
   xmlns:rdf="http://www.w3.org/1999/02/22-rdf-syntax-ns#"
   xmlns:svg="http://www.w3.org/2000/svg"
   xmlns="http://www.w3.org/2000/svg"
   xmlns:sodipodi="http://sodipodi.sourceforge.net/DTD/sodipodi-0.dtd"
   xmlns:inkscape="http://www.inkscape.org/namespaces/inkscape"
   width="210mm"
   height="297mm"
   viewBox="0 0 210 297"
   version="1.1"
   id="svg831"
   inkscape:version="0.92.4 (5da689c313, 2019-01-14)"
   sodipodi:docname="telefono.svg">
  <defs
     id="defs825" />
  <sodipodi:namedview
     id="base"
     pagecolor="#ffffff"
     bordercolor="#666666"
     borderopacity="1.0"
     inkscape:pageopacity="0.0"
     inkscape:pageshadow="2"
     inkscape:zoom="0.35"
     inkscape:cx="400"
     inkscape:cy="560"
     inkscape:document-units="mm"
     inkscape:current-layer="layer1"
     showgrid="false"
     inkscape:window-width="1366"
     inkscape:window-height="705"
     inkscape:window-x="-8"
     inkscape:window-y="-8"
     inkscape:window-maximized="1" />
  <metadata
     id="metadata828">
    <rdf:RDF>
      <cc:Work
         rdf:about="">
        <dc:format>image/svg+xml</dc:format>
        <dc:type
           rdf:resource="http://purl.org/dc/dcmitype/StillImage" />
        <dc:title></dc:title>
      </cc:Work>
    </rdf:RDF>
  </metadata>
  <g
     inkscape:label="Capa 1"
     inkscape:groupmode="layer"
     id="layer1">
    <g
       transform="matrix(0.35277777,0,0,-0.35277777,106.93441,158.88934)"
       id="g282"
       style="fill:#ffffff">
      <path
         inkscape:connector-curvature="0"
         id="path284"
         style="fill:#ffffff;fill-opacity:1;fill-rule:nonzero;stroke:none"
         d="M 0,0 C 0.089,-0.687 -0.12,-1.283 -0.627,-1.79 L -6.58,-7.698 c -0.269,-0.299 -0.619,-0.553 -1.052,-0.761 -0.432,-0.209 -0.858,-0.344 -1.276,-0.403 -0.03,0 -0.119,-0.008 -0.269,-0.023 -0.148,-0.014 -0.343,-0.022 -0.581,-0.022 -0.567,0 -1.485,0.096 -2.753,0.291 -1.268,0.193 -2.82,0.672 -4.655,1.432 -1.835,0.761 -3.917,1.903 -6.244,3.424 -2.327,1.522 -4.805,3.612 -7.431,6.267 -2.089,2.058 -3.819,4.028 -5.192,5.908 -1.372,1.88 -2.476,3.618 -3.312,5.215 -0.836,1.597 -1.462,3.044 -1.88,4.342 -0.418,1.298 -0.701,2.417 -0.85,3.357 -0.15,0.94 -0.21,1.678 -0.18,2.216 0.03,0.536 0.046,0.835 0.046,0.894 0.059,0.418 0.193,0.843 0.402,1.276 0.209,0.433 0.463,0.783 0.761,1.053 l 5.953,5.952 c 0.418,0.418 0.895,0.627 1.433,0.627 0.388,0 0.73,-0.112 1.029,-0.336 0.298,-0.224 0.552,-0.499 0.761,-0.827 l 4.789,-9.087 c 0.269,-0.478 0.344,-0.999 0.224,-1.567 -0.119,-0.566 -0.372,-1.045 -0.761,-1.432 l -2.193,-2.194 c -0.06,-0.059 -0.112,-0.156 -0.157,-0.291 -0.045,-0.134 -0.067,-0.246 -0.067,-0.336 0.119,-0.626 0.388,-1.342 0.806,-2.148 0.357,-0.716 0.91,-1.589 1.656,-2.618 0.746,-1.03 1.806,-2.216 3.178,-3.558 1.343,-1.374 2.536,-2.44 3.581,-3.201 1.044,-0.761 1.917,-1.32 2.619,-1.679 0.701,-0.358 1.237,-0.574 1.612,-0.648 l 0.558,-0.112 c 0.06,0 0.157,0.022 0.291,0.067 0.134,0.045 0.231,0.097 0.291,0.156 l 2.551,2.597 c 0.538,0.476 1.164,0.716 1.88,0.716 0.508,0 0.91,-0.09 1.209,-0.269 h 0.044 L -1.12,1.478 C -0.493,1.089 -0.12,0.598 0,0" />
    </g>
  </g>
</svg>
